<svg class="logo" xmlns="http://www.w3.org/2000/svg" xmlns:xlink="http://www.w3.org/1999/xlink">
	<defs>
		<style>
			/* svg logo colors*/
			.a {
				fill: #1f1a17;
			}
			.a, .b, .c {
				fill-rule: evenodd;
			}
			.b {
				fill: #bfa363;
			}
			.c {
				fill: #911c1f;
			}

			svg * {
				transition: opacity 100ms ease-in-out;
			}
			.logo #desktop {
				opacity: 0;
			}
			.logo #table {
				opacity: 0;
			}

			/* svg responsive */
			@media only screen  and (min-width: 767px) {
				.logo #mobile {
					opacity: 0;
					/*height: 89px;*/
				}
			}
			@media only screen and (min-width: 992px) {
				.logo #desktop {
					opacity: 1;
					/*height: 136px;*/
				}
			}
			@media only screen and (max-width: 991px) and (min-width: 767px) {
				.logo #table {
					opacity: 1;
					/*height: 89px;*/
				}
				#svg-logo .c {
					fill: #1f1a17;
				}
			}
			@media only screen and (max-width: 767px){                  
				.logo {
					/*height: 75px;*/
				}
			}

		</style>
	</defs>

	<symbol id="svg-ico">
		<path class="b" d="M59.47,3.556c-.1.225-.455.083-.6-.06a.806.806,0,0,1,.117-1.07,1.229,1.229,0,0,1,1.674.119,1.5,1.5,0,0,1-.047,2.11,2.006,2.006,0,0,1-2.744-.178,2.215,2.215,0,0,1-.023-3.152,2.784,2.784,0,0,1,3.816.237,2.968,2.968,0,0,1,.921,1.915,13.851,13.851,0,0,0,8.771,0,2.967,2.967,0,0,1,.921-1.915,2.784,2.784,0,0,1,3.815-.237,2.215,2.215,0,0,1-.023,3.152,2.007,2.007,0,0,1-2.745.178,1.5,1.5,0,0,1-.047-2.11,1.229,1.229,0,0,1,1.674-.119.806.806,0,0,1,.117,1.069c-.148.144-.506.286-.6.06.479-.115.477-.939-.262-.915a.563.563,0,0,0-.525.546,1.006,1.006,0,0,0,.318.846,1.107,1.107,0,0,0,1.539-.058,1.452,1.452,0,0,0-.114-2.027,1.884,1.884,0,0,0-2.61.117,2.158,2.158,0,0,0,.044,3.067,2.662,2.662,0,0,0,3.68-.176A2.879,2.879,0,0,0,76.556.849a3.273,3.273,0,0,0-3.873-.4H61.246a3.271,3.271,0,0,0-3.872.4A2.879,2.879,0,0,0,57.4,4.957a2.662,2.662,0,0,0,3.68.176,2.159,2.159,0,0,0,.044-3.068,1.884,1.884,0,0,0-2.609-.117A1.451,1.451,0,0,0,58.4,3.975a1.107,1.107,0,0,0,1.538.058,1,1,0,0,0,.318-.847.563.563,0,0,0-.525-.546c-.738-.024-.74.8-.261.916M71.629,4.93h0a.725.725,0,0,1,.939.721V79.73a.721.721,0,0,1-.939.715h0a1.155,1.155,0,0,1-.938-1.082V6.023A1.169,1.169,0,0,1,71.629,4.93ZM68.5,5.309h0a.866.866,0,0,1,.939.864V79.214a.852.852,0,0,1-.939.846h0a.967.967,0,0,1-.938-.939V6.266A.988.988,0,0,1,68.5,5.309Zm-3.129.006h0a.988.988,0,0,1,.939.957V79.121a.982.982,0,0,1-.939.951h0a.859.859,0,0,1-.938-.852V6.179A.866.866,0,0,1,65.371,5.315ZM62.244,4.93h0a1.181,1.181,0,0,1,.938,1.1v73.34a1.168,1.168,0,0,1-.938,1.088h0a.73.73,0,0,1-.938-.727V5.651A.726.726,0,0,1,62.244,4.93ZM60.864,83.5h12.2a1.052,1.052,0,0,0,.726-.293.935.935,0,0,0,.3-.68h0a1.115,1.115,0,0,0-.3-.732,1.189,1.189,0,0,0-.726-.406,47.508,47.508,0,0,0-12.2,0,1.19,1.19,0,0,0-.727.406,1.111,1.111,0,0,0-.3.732h0a.931.931,0,0,0,.3.68A1.054,1.054,0,0,0,60.864,83.5Zm-3.442,2.021a2.952,2.952,0,0,0,2.607-1.271H73.686a3.52,3.52,0,0,0,2.822,1.271v2.232H57.422Z"/>
		<path class="c" d="M38.465.215h16.86a4.861,4.861,0,0,0,.561,6.048c.038.04.08.081.123.123h0l0,0,0,0a5.021,5.021,0,0,0,3.193,1.4c.1,0,.193.006.289,0V79.779a3.363,3.363,0,0,0-.854.678,3.228,3.228,0,0,0-.575.93,3.006,3.006,0,0,0-.234,1.138,2.865,2.865,0,0,0,.151.913,1.735,1.735,0,0,1-.565.082h-2v4.222H38.465V77.235H48.993V10.721H38.465V.215M78.6.215h39.115v23.66H107.212V10.721H84.887L97.294,43.795,84.887,77.235h22.325V63.819h10.506V87.741H78.508V83.519h-2a2.1,2.1,0,0,1-.571-.072,2.815,2.815,0,0,0,.157-.922,2.969,2.969,0,0,0-.235-1.143,3.268,3.268,0,0,0-.577-.924,3.371,3.371,0,0,0-.867-.685l-.034-.019V7.794c.113,0,.225,0,.338,0a5.023,5.023,0,0,0,3.2-1.4c.051-.05.1-.1.138-.139A4.861,4.861,0,0,0,78.6.215Z"/>
	</symbol>
	<symbol id="svg-logo">
		<path class="c" d="M289.236,50.52v.39a4.745,4.745,0,0,0,.958,3.078,3.084,3.084,0,0,0,2.5,1.18,3.276,3.276,0,0,0,2.377-.887,2.988,2.988,0,0,0,.923-2.253,3.158,3.158,0,0,0-.674-2.093,7.337,7.337,0,0,0-2.422-1.65c-.665-.293-1.632-.7-2.909-1.224a11.479,11.479,0,0,1-2.475-1.215,7.939,7.939,0,0,1-3.087-6.555,8.235,8.235,0,0,1,2.537-6.111,8.435,8.435,0,0,1,6.138-2.492,8.19,8.19,0,0,1,6.04,2.208,9.065,9.065,0,0,1,2.43,6.191H295.6v-.16a3.11,3.11,0,0,0-.71-2.155,2.559,2.559,0,0,0-1.987-.78,2.507,2.507,0,0,0-1.862.763,2.68,2.68,0,0,0-.737,1.916c0,1.25,1.277,2.4,3.841,3.486.674.275,1.2.488,1.561.647a12.275,12.275,0,0,1,5.047,3.575,8.787,8.787,0,0,1,1.348,5.153,8.825,8.825,0,0,1-2.705,6.617,9.4,9.4,0,0,1-6.8,2.608,8.638,8.638,0,0,1-6.67-2.75,11.528,11.528,0,0,1-2.767-7.459M272.632,60V56.489a7.352,7.352,0,0,1-3.362,3.149,13.19,13.19,0,0,1-5.552,1.011,14.232,14.232,0,0,1-10.582-4.328,14.735,14.735,0,0,1-4.249-10.741,15.461,15.461,0,0,1,1.065-5.721,14.305,14.305,0,0,1,3.042-4.754,13.686,13.686,0,0,1,4.728-3.335,15.116,15.116,0,0,1,5.845-1.082,12.73,12.73,0,0,1,5.366,1.038,8.456,8.456,0,0,1,3.619,3.149V31.415h6.5V60ZM255.7,45.473a8.245,8.245,0,0,0,2.4,6.04,7.892,7.892,0,0,0,5.854,2.43,7.547,7.547,0,0,0,5.535-2.439,7.95,7.95,0,0,0,2.386-5.721,8.325,8.325,0,0,0-2.4-5.987,7.53,7.53,0,0,0-5.623-2.51,8.131,8.131,0,0,0-8.151,8.187ZM238.209,60V31.415H244.7V60ZM213.685,31.415v3.246a8.909,8.909,0,0,1,7.637-3.814,11.757,11.757,0,0,1,5.393,1.171,9.9,9.9,0,0,1,3.832,3.5,11.066,11.066,0,0,1,1.419,3.548,29.713,29.713,0,0,1,.426,5.81V60h-6.652V47.344q0-5.747-1.322-7.876T219.84,37.34a5.178,5.178,0,0,0-4.781,2.35q-1.45,2.355-1.455,8.071V60h-6.422V31.415Zm-33.607,16.4a7.072,7.072,0,0,0,2.457,4.869,8.207,8.207,0,0,0,5.473,1.783,8.535,8.535,0,0,0,4.009-.931,7.181,7.181,0,0,0,2.82-2.625h7.176a15.627,15.627,0,0,1-5.446,7.264,14.062,14.062,0,0,1-8.382,2.581,15.009,15.009,0,0,1-5.88-1.127,14.546,14.546,0,0,1-4.825-3.344,15.393,15.393,0,0,1-4.257-10.546,15.369,15.369,0,0,1,1.029-5.623,14.378,14.378,0,0,1,3.025-4.745,15.475,15.475,0,0,1,4.941-3.557,13.591,13.591,0,0,1,5.685-1.251,14.707,14.707,0,0,1,6.936,1.686A16.032,16.032,0,0,1,200.318,37a12.769,12.769,0,0,1,2.04,4.133,18.827,18.827,0,0,1,.665,5.251c0,.151-.009.39-.027.71s-.027.559-.027.719Zm15.77-5.277a8.092,8.092,0,0,0-2.874-4.355,8.292,8.292,0,0,0-5.073-1.49,7.61,7.61,0,0,0-4.754,1.614,7.793,7.793,0,0,0-2.838,4.231ZM145.5,45.216a8.518,8.518,0,0,0,2.51,6.262A8.368,8.368,0,0,0,154.179,54a8.735,8.735,0,0,0,8.47-8.471,8.637,8.637,0,0,0-2.528-6.253,8.092,8.092,0,0,0-6-2.581,8.434,8.434,0,0,0-6.111,2.466A8.166,8.166,0,0,0,145.5,45.216Zm17.775-13.8h5.952V55.274q0,7.424-3.965,11.664t-10.874,4.24a14.744,14.744,0,0,1-8.657-2.43,13.983,13.983,0,0,1-5.118-7.211h6.422a7.459,7.459,0,0,0,2.962,3.016,9.195,9.195,0,0,0,10.741-1.5,9.407,9.407,0,0,0,2.483-6.821v-.284a12.859,12.859,0,0,1-4.39,3.024,13.981,13.981,0,0,1-5.4,1.029,14.95,14.95,0,0,1-5.419-.984,13.887,13.887,0,0,1-4.532-2.838,14.419,14.419,0,0,1-3.353-4.834,14.144,14.144,0,0,1-1.224-5.712A14.741,14.741,0,0,1,143,34.909a13.916,13.916,0,0,1,10.422-4.222,13.727,13.727,0,0,1,5.313,1.011,14.146,14.146,0,0,1,4.532,3.122Zm74.954-9.252h6.461v6.361h-6.461ZM128.191,60v-3.1a8.94,8.94,0,0,1-7.637,3.849q-5.375,0-8.267-3.3T109.4,47.965V31.415h6.732V44.249q0,5.8,1.322,7.929t4.576,2.129a5.116,5.116,0,0,0,4.763-2.395q1.45-2.382,1.446-8.107V31.415h6.546V60Z"/>
	</symbol>
	<symbol id="svg-slog">
		<path class="a" d="M339.108,86.557a5.766,5.766,0,0,1-2.277,2.658,6.988,6.988,0,0,1-5.429.689,5.059,5.059,0,0,1-1.573-.8,4.738,4.738,0,0,1-1.461-1.721,4.912,4.912,0,0,1-.507-2.217,5.875,5.875,0,0,1,.493-2.358,6.353,6.353,0,0,1,1.413-2.036,5.964,5.964,0,0,1,2.043-1.309A6.868,6.868,0,0,1,334.321,79a5.7,5.7,0,0,1,3.389,1.009,4.788,4.788,0,0,1,1.891,2.736h-2.445a2.961,2.961,0,0,0-1.187-1.3A3.655,3.655,0,0,0,334.116,81a3.9,3.9,0,0,0-1.475.272,4.22,4.22,0,0,0-2.189,2.154,3.946,3.946,0,0,0-.3,1.555,3.112,3.112,0,0,0,.909,2.323,3.208,3.208,0,0,0,2.347.893,3.879,3.879,0,0,0,1.787-.418,4.249,4.249,0,0,0,1.448-1.226m-17.6,3.4,2.21-10.736h2.226l-1.842,8.894h3.741l-.384,1.842Zm-8.7,0,2.211-10.736h2.226l-1.842,8.894h3.741l-.384,1.842ZM298.381,91.1a1.282,1.282,0,0,0,.707-.373,1.48,1.48,0,0,0,.318-.773h-.883l.5-2.435h2.409l-.5,2.417a3.425,3.425,0,0,1-.9,1.931,3.218,3.218,0,0,1-1.943.618Zm-5.81-1.146h-2.7l2.666-12.934h3.64a5.2,5.2,0,0,1,3.392.982,3.4,3.4,0,0,1,1.192,2.783,4.007,4.007,0,0,1-.357,1.692,3.642,3.642,0,0,1-1.047,1.328,4.787,4.787,0,0,1-1.623.852,8.715,8.715,0,0,1-2.387.258h-1.738Zm1.507-7.295h1.365a3.115,3.115,0,0,0,1.9-.485,1.671,1.671,0,0,0,.639-1.425,1.375,1.375,0,0,0-.617-1.243,3.619,3.619,0,0,0-1.924-.4c-.164,0-.289,0-.376,0a2.414,2.414,0,0,0-.263.024Zm-6.494,2.162a8.1,8.1,0,0,1-1.85,4.242,5.193,5.193,0,0,1-3.684,1.149,4.869,4.869,0,0,1-3.09-.906,2.929,2.929,0,0,1-1.153-2.425,7.494,7.494,0,0,1,.067-.955c.042-.346.106-.712.186-1.1l1.619-7.8h2.644l-1.5,7.24c-.064.291-.112.576-.148.852a6.218,6.218,0,0,0-.052.782,1.766,1.766,0,0,0,.488,1.328,1.873,1.873,0,0,0,1.365.476,1.947,1.947,0,0,0,1.609-.688A7.986,7.986,0,0,0,285.117,84l1.442-6.982h2.6Zm-23.33-.667a3.547,3.547,0,0,0,1.031,2.659,3.715,3.715,0,0,0,2.721,1.01,4.588,4.588,0,0,0,3.463-1.386,4.971,4.971,0,0,0,1.336-3.6,3.556,3.556,0,0,0-1.021-2.677,3.778,3.778,0,0,0-2.75-.991,4.565,4.565,0,0,0-3.434,1.392A4.947,4.947,0,0,0,264.254,84.154Zm-2.721.176a8.16,8.16,0,0,1,.585-3.138,6.728,6.728,0,0,1,1.712-2.45,7.429,7.429,0,0,1,2.454-1.483,8.692,8.692,0,0,1,2.984-.5,6.35,6.35,0,0,1,4.555,1.613,5.674,5.674,0,0,1,1.7,4.32,8.084,8.084,0,0,1-.588,3.114,6.574,6.574,0,0,1-1.709,2.432,7.362,7.362,0,0,1-2.454,1.486,8.623,8.623,0,0,1-2.994.5,6.335,6.335,0,0,1-4.539-1.616A5.623,5.623,0,0,1,261.533,84.33Zm-6.738.782,3.132,4.842h-2.962l-3.183-5.748-1.176,5.748h-2.673l2.654-12.934h3.842a5.994,5.994,0,0,1,3.717,1,3.369,3.369,0,0,1,1.307,2.835,3.866,3.866,0,0,1-1.263,2.98A5.265,5.265,0,0,1,254.8,85.112ZM252,83.184c.08.006.173.012.276.015s.257,0,.456,0a6.161,6.161,0,0,0,2.965-.552,1.831,1.831,0,0,0,.96-1.7,1.55,1.55,0,0,0-.611-1.316,2.858,2.858,0,0,0-1.741-.461c-.2,0-.427,0-.678.012s-.524.024-.819.043Zm-5.6.021a7.484,7.484,0,0,1-2.361,5.13,7.7,7.7,0,0,1-5.384,1.895,6.331,6.331,0,0,1-4.539-1.613,5.609,5.609,0,0,1-1.709-4.287,8.412,8.412,0,0,1,.353-2.474,6.948,6.948,0,0,1,1.041-2.092,7.033,7.033,0,0,1,2.686-2.219,8.154,8.154,0,0,1,3.572-.782,6.89,6.89,0,0,1,3.99,1.092,5.179,5.179,0,0,1,2.107,3.074H243.2a2.682,2.682,0,0,0-1.237-1.292,4.277,4.277,0,0,0-2.056-.467,4.566,4.566,0,0,0-3.434,1.392,4.947,4.947,0,0,0-1.346,3.593,3.506,3.506,0,0,0,1.034,2.659,3.834,3.834,0,0,0,2.766.991,4.807,4.807,0,0,0,2.438-.631,4.5,4.5,0,0,0,1.722-1.749h-5.551l.46-2.22Zm-29.485,6.749,1.057-4.893L215.1,77.02h2.663l1.873,5.57,3.964-5.57h3.029l-6.033,8.04-.98,4.893Zm-8.421-4.842,3.132,4.842h-2.962l-3.184-5.748L204.3,89.954h-2.673l2.654-12.934h3.842a5.994,5.994,0,0,1,3.717,1,3.368,3.368,0,0,1,1.307,2.835,3.866,3.866,0,0,1-1.263,2.98A5.265,5.265,0,0,1,208.493,85.112ZM205.7,83.184c.08.006.173.012.276.015s.257,0,.456,0a6.161,6.161,0,0,0,2.965-.552,1.831,1.831,0,0,0,.96-1.7,1.55,1.55,0,0,0-.611-1.316A2.858,2.858,0,0,0,208,79.17c-.2,0-.427,0-.677.012s-.524.024-.819.043Zm-16.874.97a3.547,3.547,0,0,0,1.031,2.659,3.715,3.715,0,0,0,2.721,1.01,4.589,4.589,0,0,0,3.463-1.386,4.972,4.972,0,0,0,1.336-3.6,3.556,3.556,0,0,0-1.022-2.677,3.778,3.778,0,0,0-2.75-.991,4.566,4.566,0,0,0-3.434,1.392A4.948,4.948,0,0,0,188.825,84.154Zm-2.721.176a8.16,8.16,0,0,1,.585-3.138,6.731,6.731,0,0,1,1.712-2.45,7.431,7.431,0,0,1,2.454-1.483,8.691,8.691,0,0,1,2.984-.5,6.351,6.351,0,0,1,4.555,1.613,5.674,5.674,0,0,1,1.7,4.32,8.088,8.088,0,0,1-.588,3.114,6.576,6.576,0,0,1-1.709,2.432,7.363,7.363,0,0,1-2.454,1.486,8.62,8.62,0,0,1-2.994.5,6.334,6.334,0,0,1-4.539-1.616A5.623,5.623,0,0,1,186.1,84.33Zm-2.07-3.82H181.4v-.179a1.483,1.483,0,0,0-.385-1.079,1.383,1.383,0,0,0-1.038-.394,1.572,1.572,0,0,0-1.115.418,1.342,1.342,0,0,0-.447,1.022q0,.81,1.95,1.938c.312.176.556.318.733.424a5.2,5.2,0,0,1,1.741,1.528,3.557,3.557,0,0,1,.488,1.928,3.75,3.75,0,0,1-1.3,2.941,4.815,4.815,0,0,1-3.318,1.155,4.571,4.571,0,0,1-3.251-1.061,4,4,0,0,1-1.124-3.05v-.294h2.618c0,.037,0,.082-.01.143a1.286,1.286,0,0,0-.01.133A1.813,1.813,0,0,0,177.4,87.4a1.762,1.762,0,0,0,1.311.479,1.843,1.843,0,0,0,1.327-.5,1.688,1.688,0,0,0,.517-1.27,1.516,1.516,0,0,0-.263-.909,3.854,3.854,0,0,0-1.138-.876c-.115-.058-.283-.146-.51-.267a8.506,8.506,0,0,1-2.043-1.4,3.232,3.232,0,0,1-.681-1.025,3.048,3.048,0,0,1-.241-1.195,3.317,3.317,0,0,1,1.211-2.662,4.762,4.762,0,0,1,3.168-1.016,4.446,4.446,0,0,1,2.939.892,3.011,3.011,0,0,1,1.07,2.438c0,.112,0,.2,0,.254A.968.968,0,0,1,184.034,80.51Zm-16.189,9.444,2.663-12.934h2.682l-2.663,12.934Zm-9.79,0L155.817,77.02h2.7l1.693,9.932,5.535-9.932h2.737l-7.209,12.934Zm-10.7-12.934a6.784,6.784,0,0,1,4.668,1.474,5.271,5.271,0,0,1,1.657,4.151,6.93,6.93,0,0,1-2.14,5.312,8.013,8.013,0,0,1-5.689,2h-5.14l2.637-12.934Zm-.581,2.053h-1.131L143.807,87.9h1.468a5.8,5.8,0,0,0,4.038-1.413,4.661,4.661,0,0,0,1.571-3.632,3.581,3.581,0,0,0-1.073-2.78A4.392,4.392,0,0,0,146.772,79.073Zm-11.155,5.748-1.044-4.62-2.673,4.62Zm-9.656,5.133,7.69-12.934h2.869l2.975,12.934h-2.737l-.623-2.726h-5.628l-1.6,2.726Z"/>
	</symbol>
	<symbol id="svg-bottom">
		<polyline class="b" points="14.45 100.032 363.627 100.032 363.627 102.671 14.45 102.671"/>
		<path class="a" d="M377.048,116.256v3.515h3.287v2.217h-3.31V126.9a2.513,2.513,0,0,0,.321,1.547,1.673,1.673,0,0,0,1.241.354c.2,0,.44-.007.712-.022s.622-.045,1.059-.086v2.389c-.618.06-1.122.1-1.513.127s-.734.037-1.032.037a4.654,4.654,0,0,1-3.209-.835c-.578-.555-.865-1.659-.865-3.3v-5.121h-3.09V119.77h3.09v-2.62M355.9,131v-7.938c0-.209-.015-.589-.048-1.137s-.082-1.263-.149-2.15h3.291l.13,1.945a4.864,4.864,0,0,1,1.927-1.647,6.275,6.275,0,0,1,2.724-.548,5.528,5.528,0,0,1,3.8,1.208,4.287,4.287,0,0,1,1.36,3.38V131h-3.265v-5.863a3.831,3.831,0,0,0-.738-2.56,2.724,2.724,0,0,0-2.188-.857,3.416,3.416,0,0,0-3.514,3.537V131Zm-11.954-4.759v.108a2.681,2.681,0,0,0,.88,2.15,3.711,3.711,0,0,0,2.493.753,3.023,3.023,0,0,0,1.8-.485,1.915,1.915,0,0,0,.8-1.368h3.261a3.877,3.877,0,0,1-1.823,2.862,8.992,8.992,0,0,1-9.176-.481,5.217,5.217,0,0,1-1.8-4.219,5.682,5.682,0,0,1,1.8-4.439,7.1,7.1,0,0,1,4.942-1.621,5.582,5.582,0,0,1,6.276,6.291v.447Zm0-1.964,6.1-.011a2.538,2.538,0,0,0-.823-1.919,3.372,3.372,0,0,0-2.225-.649,3.184,3.184,0,0,0-2.113.682A2.751,2.751,0,0,0,343.946,124.273ZM334.612,131v-5.863a4.18,4.18,0,0,0-.656-2.56,2.32,2.32,0,0,0-1.964-.857,2.847,2.847,0,0,0-2.229,1,3.694,3.694,0,0,0-.883,2.538V131h-3.242v-5.863a4.2,4.2,0,0,0-.656-2.556,2.3,2.3,0,0,0-1.953-.861,2.843,2.843,0,0,0-2.221,1.006,3.675,3.675,0,0,0-.891,2.53V131h-3.31v-7.938c0-.168-.015-.522-.048-1.07s-.082-1.286-.149-2.217h3.19l.119,1.945a4.646,4.646,0,0,1,1.83-1.655,5.893,5.893,0,0,1,2.635-.54,5.6,5.6,0,0,1,2.642.563,3.517,3.517,0,0,1,1.584,1.655,5.557,5.557,0,0,1,1.949-1.688,5.69,5.69,0,0,1,2.549-.529,6.462,6.462,0,0,1,2.229.361,4.311,4.311,0,0,1,1.658,1.047,3.482,3.482,0,0,1,.813,1.353,7.6,7.6,0,0,1,.246,2.206V131Zm-29.959-4.759v.108a2.682,2.682,0,0,0,.879,2.15,3.711,3.711,0,0,0,2.493.753,3.023,3.023,0,0,0,1.8-.485,1.916,1.916,0,0,0,.805-1.368h3.261a3.876,3.876,0,0,1-1.823,2.862,8.992,8.992,0,0,1-9.176-.481,5.217,5.217,0,0,1-1.8-4.219,5.682,5.682,0,0,1,1.8-4.439,7.1,7.1,0,0,1,4.942-1.621,5.582,5.582,0,0,1,6.276,6.291v.447Zm0-1.964,6.1-.011a2.538,2.538,0,0,0-.824-1.919,3.372,3.372,0,0,0-2.225-.649,3.184,3.184,0,0,0-2.113.682A2.75,2.75,0,0,0,304.654,124.273Zm-9.617.663a3.305,3.305,0,0,0-.906-2.437,3.266,3.266,0,0,0-2.423-.913,3.14,3.14,0,0,0-2.4.939,3.559,3.559,0,0,0-.883,2.542,3.358,3.358,0,0,0,.913,2.464,3.241,3.241,0,0,0,2.415.92,3.133,3.133,0,0,0,2.408-.939A3.621,3.621,0,0,0,295.037,124.936Zm.25-5.165h3.246c-.067.574-.116,1.178-.149,1.8s-.052,1.278-.06,1.953v6.235a12.159,12.159,0,0,1-.168,2.285,3.608,3.608,0,0,1-.563,1.383,4.26,4.26,0,0,1-2.184,1.547,13.128,13.128,0,0,1-3.988.473,8.63,8.63,0,0,1-4.61-1,3.387,3.387,0,0,1-1.6-2.981h3.5a1.654,1.654,0,0,0,.783,1.356,3.916,3.916,0,0,0,2.087.455,4.205,4.205,0,0,0,2.6-.656,2.409,2.409,0,0,0,.842-2.031v-1.726a5.728,5.728,0,0,1-2,1.357,6.784,6.784,0,0,1-2.512.436,5.68,5.68,0,0,1-4.122-1.54,5.358,5.358,0,0,1-1.588-4.029,5.423,5.423,0,0,1,1.554-4.077,5.766,5.766,0,0,1,4.2-1.513,6.383,6.383,0,0,1,2.531.477,6.041,6.041,0,0,1,2.053,1.48ZM278.89,131l-.1-1.543a4.763,4.763,0,0,1-1.867,1.357,6.607,6.607,0,0,1-2.534.458,5.451,5.451,0,0,1-3.436-.984,3.174,3.174,0,0,1-1.26-2.639,2.978,2.978,0,0,1,1.681-2.866,13.292,13.292,0,0,1,5.658-.868h1.737V123.7a2.412,2.412,0,0,0-.611-1.8,2.64,2.64,0,0,0-1.89-.589,3.215,3.215,0,0,0-1.74.384,1.533,1.533,0,0,0-.693,1.159l-3.179.011a3.023,3.023,0,0,1,1.617-2.486,8.212,8.212,0,0,1,4.148-.88,6.624,6.624,0,0,1,4.2,1.129A4.067,4.067,0,0,1,282.035,124v4.5c0,.481.011.924.037,1.338s.063.8.115,1.163Zm-.119-5.184h-2.095a6.386,6.386,0,0,0-2.784.432,1.508,1.508,0,0,0-.8,1.442,1.407,1.407,0,0,0,.585,1.226,2.888,2.888,0,0,0,1.7.421,3.4,3.4,0,0,0,2.478-.894,3.238,3.238,0,0,0,.917-2.43ZM254.2,131v-7.938c0-.209-.015-.589-.049-1.137s-.082-1.263-.149-2.15H257.3l.13,1.945a4.864,4.864,0,0,1,1.927-1.647,6.274,6.274,0,0,1,2.724-.548,5.528,5.528,0,0,1,3.8,1.208,4.287,4.287,0,0,1,1.36,3.38V131h-3.265v-5.863a3.831,3.831,0,0,0-.738-2.56,2.724,2.724,0,0,0-2.188-.857,3.416,3.416,0,0,0-3.514,3.537V131Zm-6.647,0-.1-1.543a4.764,4.764,0,0,1-1.867,1.357,6.607,6.607,0,0,1-2.534.458,5.451,5.451,0,0,1-3.436-.984,3.174,3.174,0,0,1-1.26-2.639,2.978,2.978,0,0,1,1.681-2.866,13.292,13.292,0,0,1,5.658-.868h1.737V123.7a2.412,2.412,0,0,0-.611-1.8,2.64,2.64,0,0,0-1.89-.589,3.215,3.215,0,0,0-1.741.384,1.533,1.533,0,0,0-.693,1.159l-3.179.011a3.023,3.023,0,0,1,1.617-2.486,8.212,8.212,0,0,1,4.148-.88,6.624,6.624,0,0,1,4.2,1.129A4.067,4.067,0,0,1,250.7,124v4.5c0,.481.011.924.038,1.338s.063.8.115,1.163Zm-.119-5.184h-2.095a6.386,6.386,0,0,0-2.784.432,1.508,1.508,0,0,0-.8,1.442,1.407,1.407,0,0,0,.585,1.226,2.888,2.888,0,0,0,1.7.421,3.4,3.4,0,0,0,2.478-.894,3.238,3.238,0,0,0,.917-2.43ZM213.134,131v-16.1h5.426l5.863,12.664,5.762-12.664h5.244V131h-3.474V118.157L226.167,131h-3.939l-5.874-12.839V131ZM179.7,131v-16.1h3.351v6.694a4.409,4.409,0,0,1,1.841-1.539,6.352,6.352,0,0,1,2.68-.526,5.576,5.576,0,0,1,3.824,1.208,4.277,4.277,0,0,1,1.364,3.38V131h-3.265v-5.863a3.831,3.831,0,0,0-.738-2.56,2.735,2.735,0,0,0-2.188-.857,3.416,3.416,0,0,0-3.518,3.537V131Zm-5.786-14.74v3.515H177.2v2.217h-3.31V126.9a2.513,2.513,0,0,0,.321,1.547,1.673,1.673,0,0,0,1.241.354c.205,0,.44-.007.712-.022s.622-.045,1.059-.086v2.389c-.619.06-1.122.1-1.513.127s-.734.037-1.032.037a4.654,4.654,0,0,1-3.209-.835c-.578-.555-.865-1.659-.865-3.3v-5.121h-3.09V119.77h3.09v-2.62ZM162.179,131v-16.1h3.5V131Zm-6.647,0-.1-1.543a4.764,4.764,0,0,1-1.867,1.357,6.607,6.607,0,0,1-2.534.458,5.451,5.451,0,0,1-3.436-.984,3.174,3.174,0,0,1-1.26-2.639,2.977,2.977,0,0,1,1.681-2.866,13.292,13.292,0,0,1,5.658-.868h1.737V123.7a2.411,2.411,0,0,0-.612-1.8,2.64,2.64,0,0,0-1.889-.589,3.215,3.215,0,0,0-1.741.384,1.533,1.533,0,0,0-.693,1.159l-3.179.011a3.023,3.023,0,0,1,1.617-2.486,8.212,8.212,0,0,1,4.148-.88,6.624,6.624,0,0,1,4.2,1.129A4.067,4.067,0,0,1,158.677,124v4.5c0,.481.011.924.038,1.338s.063.8.115,1.163Zm-.119-5.184h-2.095a6.386,6.386,0,0,0-2.784.432,1.508,1.508,0,0,0-.8,1.442,1.407,1.407,0,0,0,.585,1.226,2.888,2.888,0,0,0,1.7.421,3.4,3.4,0,0,0,2.478-.894,3.238,3.238,0,0,0,.917-2.43Zm-20.023.425v.108a2.681,2.681,0,0,0,.88,2.15,3.711,3.711,0,0,0,2.493.753,3.022,3.022,0,0,0,1.8-.485,1.915,1.915,0,0,0,.805-1.368h3.261a3.877,3.877,0,0,1-1.823,2.862,8.992,8.992,0,0,1-9.176-.481,5.217,5.217,0,0,1-1.8-4.219,5.682,5.682,0,0,1,1.8-4.439,7.1,7.1,0,0,1,4.942-1.621,5.582,5.582,0,0,1,6.276,6.291v.447Zm0-1.964,6.1-.011a2.538,2.538,0,0,0-.824-1.919,3.372,3.372,0,0,0-2.225-.649,3.184,3.184,0,0,0-2.113.682A2.751,2.751,0,0,0,135.39,124.273Zm-31.662-9.381h3.734l3.779,12.862,4.29-12.862H119.9l4.312,12.862,3.887-12.862h3.582L126.429,131H121.7l-4.081-12.929L113.273,131h-4.532ZM76.714,126.237v.108a2.682,2.682,0,0,0,.88,2.15,3.711,3.711,0,0,0,2.493.753,3.023,3.023,0,0,0,1.8-.485,1.915,1.915,0,0,0,.8-1.368h3.261a3.876,3.876,0,0,1-1.823,2.862,7.514,7.514,0,0,1-4.17,1.032,7.532,7.532,0,0,1-5.005-1.513,5.217,5.217,0,0,1-1.8-4.219,5.682,5.682,0,0,1,1.8-4.439,7.1,7.1,0,0,1,4.942-1.621,5.582,5.582,0,0,1,6.276,6.291v.447Zm0-1.964,6.1-.011A2.538,2.538,0,0,0,82,122.342a3.372,3.372,0,0,0-2.225-.649,3.184,3.184,0,0,0-2.113.682A2.751,2.751,0,0,0,76.714,124.273Zm-8.473-8.017v3.515h3.287v2.217H68.219V126.9a2.513,2.513,0,0,0,.321,1.547,1.673,1.673,0,0,0,1.241.354c.2,0,.44-.007.712-.022s.623-.045,1.058-.086v2.389c-.618.06-1.122.1-1.513.127s-.734.037-1.032.037a4.654,4.654,0,0,1-3.209-.835c-.578-.555-.865-1.659-.865-3.3v-5.121h-3.09V119.77h3.09v-2.62ZM56.943,131l-.1-1.543a4.763,4.763,0,0,1-1.867,1.357,6.607,6.607,0,0,1-2.534.458,5.451,5.451,0,0,1-3.436-.984,3.174,3.174,0,0,1-1.26-2.639,2.978,2.978,0,0,1,1.681-2.866,13.292,13.292,0,0,1,5.658-.868h1.737V123.7a2.412,2.412,0,0,0-.611-1.8,2.64,2.64,0,0,0-1.89-.589,3.215,3.215,0,0,0-1.74.384,1.533,1.533,0,0,0-.693,1.159l-3.179.011a3.023,3.023,0,0,1,1.617-2.486,8.212,8.212,0,0,1,4.148-.88,6.624,6.624,0,0,1,4.2,1.129A4.067,4.067,0,0,1,60.089,124v4.5c0,.481.011.924.037,1.338s.063.8.115,1.163Zm-.119-5.184H54.729a6.386,6.386,0,0,0-2.784.432,1.508,1.508,0,0,0-.8,1.442,1.407,1.407,0,0,0,.585,1.226,2.888,2.888,0,0,0,1.7.421,3.4,3.4,0,0,0,2.478-.894,3.238,3.238,0,0,0,.917-2.43ZM37.591,131l-5.5-11.225h3.734l3.842,8.3,3.988-8.3H47L41.564,131Zm-10.843,0V119.77h3.474V131Zm3.582-16.1v2.915H26.64v-2.915ZM19.915,131H16.542v-7.4c0-.328-.015-.812-.048-1.453s-.082-1.431-.149-2.37h3.4l.108,1.878a3.478,3.478,0,0,1,1.591-1.621,5.992,5.992,0,0,1,2.7-.529h.317v2.393c-.16-.022-.317-.041-.47-.052s-.3-.015-.447-.015a3.372,3.372,0,0,0-2.709,1.066,4.688,4.688,0,0,0-.917,3.138ZM0,131v-16.1H7.6a19.21,19.21,0,0,1,3.071.179,5.142,5.142,0,0,1,1.714.607,3.7,3.7,0,0,1,1.45,1.565,5.876,5.876,0,0,1,.078,4.573,3.669,3.669,0,0,1-1.256,1.517,4.85,4.85,0,0,1-1.782.72,17.012,17.012,0,0,1-3.187.22H3.582V131Zm3.582-9.213H6.869a6.625,6.625,0,0,0,3.183-.473,2.471,2.471,0,0,0-.022-3.432,6.632,6.632,0,0,0-3.16-.473H3.582Z"/>
	</symbol>

	<svg id="desktop" viewBox="0 0 381 136">
		<use xlink:href="#svg-ico" />
		<use xlink:href="#svg-logo" />
		<use xlink:href="#svg-slog" />
		<use xlink:href="#svg-bottom" />
	</svg>
	<svg id="table" viewBox="0 0 381 89">
		<use xlink:href="#svg-ico" />
		<use xlink:href="#svg-logo" />
	</svg>
	<svg id="mobile" viewBox="0 0 78 87">
		<path class="b" d="M20.914,3.522c-.1.223-.45.082-.6-.06a.8.8,0,0,1,.116-1.06,1.217,1.217,0,0,1,1.657.118,1.481,1.481,0,0,1-.047,2.091,1.986,1.986,0,0,1-2.717-.176A2.195,2.195,0,0,1,19.3,1.313a2.756,2.756,0,0,1,3.778.235,2.94,2.94,0,0,1,.912,1.9,13.708,13.708,0,0,0,8.684,0,2.94,2.94,0,0,1,.912-1.9,2.756,2.756,0,0,1,3.778-.235,2.194,2.194,0,0,1-.023,3.122,1.986,1.986,0,0,1-2.717.176,1.481,1.481,0,0,1-.046-2.091A1.217,1.217,0,0,1,36.238,2.4a.8.8,0,0,1,.116,1.059c-.147.142-.5.283-.6.06.474-.113.472-.93-.259-.907a.557.557,0,0,0-.52.541,1,1,0,0,0,.315.839,1.1,1.1,0,0,0,1.523-.057A1.439,1.439,0,0,0,36.7,1.93a1.865,1.865,0,0,0-2.584.116,2.139,2.139,0,0,0,.044,3.038,2.635,2.635,0,0,0,3.644-.174A2.853,2.853,0,0,0,37.832.841,3.239,3.239,0,0,0,34,.443H22.673a3.238,3.238,0,0,0-3.834.4,2.852,2.852,0,0,0,.026,4.069,2.635,2.635,0,0,0,3.644.174,2.139,2.139,0,0,0,.043-3.039,1.865,1.865,0,0,0-2.584-.115,1.438,1.438,0,0,0-.113,2.007,1.1,1.1,0,0,0,1.523.057,1,1,0,0,0,.315-.839.557.557,0,0,0-.52-.54c-.731-.024-.733.793-.259.907M32.954,4.883h0a.718.718,0,0,1,.93.714V78.979a.714.714,0,0,1-.93.708h0a1.144,1.144,0,0,1-.929-1.071V5.967A1.157,1.157,0,0,1,32.954,4.883Zm-3.1.375h0a.858.858,0,0,1,.93.856V78.468a.844.844,0,0,1-.93.838h0a.957.957,0,0,1-.929-.93V6.207A.978.978,0,0,1,29.856,5.259Zm-3.1.006h0a.978.978,0,0,1,.93.948V78.376a.972.972,0,0,1-.93.942h0a.851.851,0,0,1-.929-.843V6.121A.857.857,0,0,1,26.758,5.265Zm-3.1-.382h0a1.17,1.17,0,0,1,.929,1.09V78.622a1.157,1.157,0,0,1-.929,1.078h0a.723.723,0,0,1-.929-.72V5.6A.719.719,0,0,1,23.661,4.883ZM22.295,82.711h12.08a1.041,1.041,0,0,0,.719-.291.927.927,0,0,0,.3-.673h0a1.105,1.105,0,0,0-.3-.725,1.177,1.177,0,0,0-.719-.4,51.635,51.635,0,0,0-6.041-.39,51.528,51.528,0,0,0-6.039.389,1.179,1.179,0,0,0-.72.4,1.1,1.1,0,0,0-.3.725h0a.923.923,0,0,0,.3.673A1.043,1.043,0,0,0,22.295,82.711Zm-3.408,2a2.923,2.923,0,0,0,2.581-1.259H34.99a3.485,3.485,0,0,0,2.794,1.259v2.211h-18.9Z"/>
		<path class="c" d="M0,0H16.594a4.868,4.868,0,0,0,.552,6.012c.038.039.078.081.121.122h0l0,0,0,0A4.918,4.918,0,0,0,20.417,7.53c.095,0,.19.006.284,0V79.086a3.315,3.315,0,0,0-.841.674,3.214,3.214,0,0,0-.566.924,3.014,3.014,0,0,0-.23,1.131,2.873,2.873,0,0,0,.148.907,1.692,1.692,0,0,1-.556.081H16.688V87H0V76.557H10.361V10.443H0V0M39.5,0H78V23.518H67.66V10.443H45.688L57.9,43.318l-12.21,33.24H67.66V63.221H78V87H39.41V82.8H37.441a2.043,2.043,0,0,1-.562-.071,2.823,2.823,0,0,0,.155-.917,2.976,2.976,0,0,0-.231-1.137,3.253,3.253,0,0,0-.568-.919,3.323,3.323,0,0,0-.853-.68l-.033-.019V7.533c.111,0,.222,0,.333,0a4.92,4.92,0,0,0,3.151-1.4c.05-.05.1-.1.136-.138A4.869,4.869,0,0,0,39.5,0Z"/>
	</svg>
</svg>